HIERARCHY
ROOT pelvis
{
  OFFSET 0 100 0
  CHANNELS 6 Xposition Yposition Zposition Zrotation Xrotation Yrotation
  JOINT pelvis_right_femur
  {
    OFFSET -10.78128 -3.44521 -0.5502486
    CHANNELS 3 Zrotation Xrotation Yrotation
    JOINT right_femur_tibia
    {
      OFFSET -0.8047443 -44.0398 -0.1307829
      CHANNELS 3 Zrotation Xrotation Yrotation
      JOINT right_tibia_foot
      {
        OFFSET 3.006224 -47.83518 -5
        CHANNELS 3 Zrotation Xrotation Yrotation
        End Site
        {
          OFFSET 0 -5 15
        }
      }
    }
  }
  JOINT pelvis_left_femur
  {
    OFFSET 10.78128 -3.44521 -0.5502486
    CHANNELS 3 Zrotation Xrotation Yrotation
    JOINT left_femur_tibia
    {
      OFFSET 0.8047443 -44.0398 -0.1307829
      CHANNELS 3 Zrotation Xrotation Yrotation
      JOINT left_tibia_foot
      {
        OFFSET -4.370144 -48.10324 -4.275266
        CHANNELS 3 Zrotation Xrotation Yrotation
        End Site
        {
          OFFSET 0 -5 15
        }
      }
    }
  }
  JOINT pelvis_spine1
  {
    OFFSET 0 6.468898 -3.129235
    CHANNELS 3 Zrotation Xrotation Yrotation
    JOINT spine1
    {
      OFFSET 0 23.15396 4.99043
      CHANNELS 3 Zrotation Xrotation Yrotation
      JOINT spine2
      {
        OFFSET 0 20.79997 -5.064912
        CHANNELS 3 Zrotation Xrotation Yrotation
        JOINT neck
        {
          OFFSET 0 14.38658 9.616178
          CHANNELS 3 Zrotation Xrotation Yrotation
          End Site
          {
            OFFSET 0 20 0
          }
        }
      }
      JOINT right_manubrium
      {
        OFFSET -5.722621 16.35077 3.967754
        CHANNELS 3 Zrotation Xrotation Yrotation
        JOINT right_clavicle
        {
          OFFSET -13.16364 1.694482 -4.693211
          CHANNELS 3 Zrotation Xrotation Yrotation
          JOINT right_humerus
          {
            OFFSET -28.5034 -0.3100689 -2.792744
            CHANNELS 3 Zrotation Xrotation Yrotation
            JOINT right_radius
            {
              OFFSET -25.15693 0.02248979 -1.271978
              CHANNELS 3 Zrotation Xrotation Yrotation
              End Site
              {
                OFFSET -15 0 0
              }
            }
          }
        }
      }
      JOINT left_manubrium
      {
        OFFSET 5.722621 16.35077 3.967754
        CHANNELS 3 Zrotation Xrotation Yrotation
        JOINT left_clavicle
        {
          OFFSET 13.16364 1.694482 -4.693211
          CHANNELS 3 Zrotation Xrotation Yrotation
          JOINT left_humerus
          {
            OFFSET 29.39168 -1.063119 -2.237045
            CHANNELS 3 Zrotation Xrotation Yrotation
            JOINT left_radius
            {
              OFFSET 24.59957 -0.9528479 0.9047498
              CHANNELS 3 Zrotation Xrotation Yrotation
              End Site
              {
                OFFSET 15 -0 -0
              }
            }
          }
        }
      }
    }
  }
}
MOTION
Frames: 17
Frame Time: 0.0416666666667
0 103.5113 0 1.714376 -0.3827262 0.007426846 2.449522 -12.88167 10.75053 -0 40.21597 -0 -5.914248 -17.73723 -3.706609 -7.741057 8.946601 -22.21136 -0 5.673711 -0 17.89206 -9.569768 28.81202 -4.755041 -4.715099 4.635757 3.667635 11.07285 -8.354264 1.048263 22.14961 5.783154 1.59737 -25.78903 9.225209 6.431731 -21.07434 12.26366 85.97806 37.6821 -18.05665 -0 0 15.00433 -7.104198 7.836238 6.681681 3.320377 -18.04522 -2.489202 -91.42062 20.52548 20.76644 0 0 -13.49325 14.58844 12.71257 -2.723266
0.3266695 103.5347 1.650476 1.539169 -0.264716 0.00731218 2.62882 -14.37113 10.36629 -0 39.15911 -0 -6.25815 -16.62513 -3.572291 -7.586988 9.092513 -21.65298 -0 5.204003 -0 17.5274 -10.37776 28.30625 -4.700271 -4.392293 4.53003 3.745087 11.12064 -8.483926 0.9899128 21.99734 5.882463 1.767893 -25.88516 9.094157 6.34998 -21.00221 12.30668 86.10856 37.33261 -18.30024 -0 0 14.76884 -7.347932 7.666627 6.813291 3.51575 -18.48164 -2.57138 -91.20149 20.39108 20.45847 0 0 -13.94457 14.57968 12.57465 -2.663719
0.6427586 103.4257 3.312862 1.159202 -0.007434109 0.03520223 3.16739 -16.8598 9.895581 -0 37.67445 -0 -5.803185 -16.7149 -3.419433 -7.325528 9.513232 -21.91812 -0 4.866834 -0 15.30861 -12.8411 27.84747 -4.331458 -4.098441 4.627628 3.41241 10.49353 -8.235642 1.240158 21.86092 6.069274 2.038578 -25.80296 9.425937 6.151451 -20.58577 11.98561 85.88271 36.46254 -18.27259 -0 0 15.38014 -7.193839 7.917338 5.936574 4.613004 -18.97334 -1.864592 -91.54205 21.28983 20.14171 0 0 -14.38648 14.20427 13.85215 -2.334238
0.9501043 103.1961 5.041642 0.7549118 0.294668 0.0800823 3.759711 -19.35474 9.452975 -0 35.90473 -0 -5.614898 -16.16372 -3.244079 -7.027193 9.920083 -21.87721 -0 4.729749 -0 13.24359 -15.11499 27.22117 -3.995847 -3.754581 4.658187 3.196353 10.02855 -8.123524 1.405855 21.64756 6.292548 2.365422 -25.80074 9.632048 6.015198 -20.21558 11.75331 85.75071 35.77603 -18.41651 -0 0 15.77324 -7.223025 8.154186 5.292453 5.555542 -19.5283 -1.307614 -91.83725 22.0472 19.90714 0 0 -14.88797 13.65032 14.85142 -1.785909
1.250663 102.8473 6.899551 0.3034335 0.6835508 0.1367669 4.446205 -22.08903 8.988341 -0 33.71537 -0 -5.595014 -15.09011 -2.996882 -6.681152 10.30698 -21.59602 -0 4.782966 -0 11.17097 -17.37455 26.41648 -3.644215 -3.364543 4.66386 3.022685 9.650838 -8.07584 1.54156 21.33597 6.548737 2.76555 -25.84551 9.776134 5.918248 -19.83772 11.55685 85.63851 35.19254 -18.62228 -0 0 16.08407 -7.409574 8.440876 4.734176 6.526251 -20.18186 -0.7758327 -92.06827 22.50294 19.62219 0 0 -15.39743 13.21802 15.67935 -1.414037
1.5435 102.3789 8.95378 -0.1772255 1.141157 0.2070109 5.189661 -24.95326 8.503062 -0 31.13579 -0 -5.742055 -13.53033 -2.700701 -6.302816 10.74657 -21.07207 -0 5.017479 -0 9.074742 -19.55623 25.38187 -3.285547 -2.936281 4.621436 2.914776 9.344634 -8.102869 1.628613 20.9608 6.838648 3.210254 -25.95754 9.855301 5.822854 -19.4582 11.39452 85.60545 34.66912 -18.95711 -0 0 16.22341 -7.730865 8.723296 4.301607 7.441272 -20.89135 -0.3183925 -92.23901 22.80289 19.33391 0 0 -15.99289 12.75165 16.31976 -1.009945
1.825297 101.7918 11.2826 -0.6774742 1.664195 0.2997588 5.968507 -27.88959 7.987348 -0 28.17732 -0 -6.046514 -11.52389 -2.358838 -5.901021 11.29118 -20.30893 -0 5.468619 -0 6.921841 -21.60847 24.06798 -2.914701 -2.480261 4.518893 2.876004 9.085829 -8.197628 1.664666 20.54371 7.158018 3.678457 -26.14646 9.879882 5.697115 -19.06631 11.25421 85.68523 34.17037 -19.44581 -0 0 16.13917 -8.166778 8.976904 3.996908 8.263123 -21.62546 0.04591191 -92.33863 22.99884 19.0431 0 0 -16.70908 12.2214 16.76499 -0.5281748
2.089914 101.0936 13.97307 -1.179851 2.238793 0.4319535 6.747408 -30.75589 7.443676 -0 24.94337 -0 -6.495992 -9.162566 -1.985797 -5.490827 11.98574 -19.33135 -0 6.213442 -0 4.712879 -23.41158 22.44572 -2.528382 -2.019084 4.34234 2.90828 8.849525 -8.34799 1.648967 20.11845 7.492773 4.135484 -26.41663 9.862819 5.513001 -18.65141 11.12306 85.91137 33.68141 -20.09949 -0 0 15.7752 -8.679419 9.177365 3.822167 8.926098 -22.32515 0.2875041 -92.35609 23.1518 18.75849 0 0 -17.55382 11.6013 16.99944 0.07716336
2.328971 100.3052 17.11946 -1.661379 2.837887 0.627279 7.480121 -33.33989 6.873427 -0 21.6196 -0 -7.072811 -6.59601 -1.604277 -5.090331 12.85492 -18.18345 -0 7.386285 -0 2.486435 -24.78356 20.51674 -2.121493 -1.584689 4.079174 3.004829 8.610735 -8.531663 1.5854 19.72837 7.817334 4.537283 -26.75356 9.816612 5.251468 -18.19693 10.98645 86.30663 33.21066 -20.89874 -0 0 15.0849 -9.219454 9.308987 3.772572 9.353371 -22.90941 0.3722701 -92.27089 23.29955 18.47299 0 0 -18.4955 10.90622 17.0035 0.8010988
2.533554 99.46974 20.81553 -2.091895 3.407702 0.9107224 8.106252 -35.33078 6.276362 -0 18.51004 -0 -7.748107 -4.065264 -1.252499 -4.718938 13.88096 -16.93963 -0 9.199096 -0 0.3329801 -25.47127 18.33818 -1.687472 -1.218294 3.72238 3.144974 8.348711 -8.712885 1.482747 19.43016 8.092067 4.831462 -27.10732 9.746776 4.912192 -17.68161 10.83084 86.87231 32.79836 -21.77972 -0 0 14.04962 -9.725431 9.368413 3.834538 9.461603 -23.27339 0.2637434 -92.05696 23.45781 18.16273 0 0 -19.44767 10.18649 16.76321 1.589837
2.697593 98.66274 25.13848 -2.436944 3.854492 1.296483 8.55931 -36.32178 5.652744 -0 16.04094 -0 -8.479286 -1.917449 -0.9865951 -4.389612 14.96418 -15.70617 -0 11.96541 -0 -1.613965 -25.16955 16.03646 -1.216886 -0.9626331 3.280601 3.288813 8.05717 -8.842173 1.354378 19.28997 8.265511 4.96752 -27.37672 9.641954 4.526103 -17.0851 10.65036 87.57235 32.51699 -22.62378 -0 0 12.71059 -10.1341 9.370859 3.982975 9.183073 -23.30532 -0.06542786 -91.69335 23.6162 17.79136 0 0 -20.25851 9.514576 16.28609 2.349626
2.822661 98.00172 30.12034 -2.666331 4.039513 1.768175 8.792368 -35.86664 5.020086 -0 14.69918 -0 -9.215097 -0.5809225 -0.8722508 -4.096681 15.86031 -14.60755 -0 16.10566 -0 -3.22784 -23.58751 13.79342 -0.6970049 -0.8428478 2.7976 3.377013 7.761862 -8.863627 1.216872 19.36658 8.285292 4.918935 -27.41043 9.465834 4.166038 -16.40622 10.45881 88.31327 32.45393 -23.26017 -0 0 11.21496 -10.40347 9.356971 4.180973 8.505258 -22.93181 -0.6106237 -91.19121 23.74133 17.33885 0 0 -20.71811 8.950057 15.62041 2.985638
2.922056 97.64331 35.70831 -2.767913 3.803315 2.256397 8.811871 -33.6364 4.433489 -0 14.8219 -0 -9.914561 -0.4496767 -0.9533166 -3.808273 16.11313 -13.7388 -0 22.07857 -0 -4.479411 -20.5915 11.79068 -0.1188968 -0.8333484 2.378962 3.344255 7.539223 -8.733474 1.08778 19.67607 8.121121 4.715721 -27.05281 9.161556 3.939032 -15.69602 10.30358 88.93141 32.66076 -23.49697 -0 0 9.849746 -10.55189 9.396016 4.389233 7.519159 -22.19703 -1.307532 -90.63246 23.78781 16.85745 0 0 -20.61187 8.495128 14.86553 3.465776
3.019726 97.74862 41.73091 -2.7542 3.039125 2.630345 8.672918 -29.65634 3.970155 -0 16.22633 -0 -10.56719 -1.659046 -1.202752 -3.484384 15.06163 -13.08547 -0 30.14821 -0 -5.487049 -16.41314 10.15034 0.4937487 -0.8271196 2.204684 3.151506 7.512072 -8.442762 0.9839784 20.15471 7.792141 4.463468 -26.24831 8.681283 3.938933 -15.08668 10.26702 89.21802 33.08063 -23.18884 -0 0 8.996393 -10.6947 9.574723 4.592339 6.4368 -21.33249 -2.023796 -90.18682 23.71659 16.52119 0 0 -19.83699 8.080655 14.15524 3.867703
3.140334 98.4047 47.9074 -2.63586 1.789174 2.730886 8.402943 -24.43821 3.655666 -0 17.94363 -0 -11.17741 -3.865462 -1.501904 -3.124644 12.06551 -12.47805 -0 39.95741 -0 -6.406589 -11.78994 8.947815 1.02951 -0.6542256 2.478848 2.820853 7.78679 -8.019207 0.9226635 20.67401 7.372838 4.303725 -25.13874 8.03626 4.165384 -14.76272 10.43143 89.01751 33.52901 -22.31948 -0 0 8.932694 -11.02919 9.956272 4.82979 5.525162 -20.7039 -2.598962 -90.04606 23.51207 16.57587 0 0 -18.52807 7.628975 13.60906 4.330079
3.293545 99.53777 53.93245 -2.361106 0.2593623 2.458736 7.928509 -18.74536 3.400576 -0 18.58334 -0 -11.70921 -6.294496 -1.700975 -2.791332 6.971599 -11.69196 -0 50.14592 -0 -7.206114 -7.797149 8.303235 1.260473 -0.1879001 3.291629 2.428713 8.341618 -7.490049 0.9221821 21.14644 6.955232 4.313242 -23.99702 7.325416 4.481722 -14.84033 10.80471 88.35679 33.823 -21.02107 -0 0 9.56839 -11.7298 10.51103 5.187045 4.965475 -20.56565 -2.927036 -90.2725 23.18863 17.13869 0 0 -17.04026 7.157972 13.28461 4.895169
3.464365 100.9012 59.60043 -1.807445 -1.309945 1.867956 7.134109 -13.0888 3.043402 -0 17.34798 -0 -12.06834 -8.186258 -1.725367 -2.556576 0.4325705 -10.64682 -0 58.4924 -0 -7.612287 -5.317726 8.429715 0.9468262 0.5295916 4.493549 2.040795 8.976422 -6.845064 0.989778 21.62441 6.594767 4.442221 -22.97808 6.687689 4.688627 -15.25895 11.26997 87.43518 33.97084 -19.45264 -0 0 10.44777 -12.81698 11.07214 5.728145 4.755614 -20.81571 -3.021052 -90.71304 22.78682 18.03373 0 0 -15.71737 6.785996 13.16956 5.414215
